<mxfile host="app.diagrams.net" modified="2024-04-24T02:06:22.432Z" agent="Mozilla/5.0 (Windows NT 10.0; Win64; x64) AppleWebKit/537.36 (KHTML, like Gecko) Chrome/123.0.0.0 Safari/537.36" etag="KA22Txc2_jeaIbfAruIr" version="24.2.7" type="device">
  <diagram id="C5RBs43oDa-KdzZeNtuy" name="Page-1">
    <mxGraphModel dx="1467" dy="1949" grid="1" gridSize="10" guides="1" tooltips="1" connect="1" arrows="1" fold="1" page="1" pageScale="1" pageWidth="827" pageHeight="1169" math="0" shadow="0">
      <root>
        <mxCell id="WIyWlLk6GJQsqaUBKTNV-0" />
        <mxCell id="WIyWlLk6GJQsqaUBKTNV-1" parent="WIyWlLk6GJQsqaUBKTNV-0" />
        <mxCell id="AEH5Qim6zTNKWPLMUNQu-8" value="" style="edgeStyle=orthogonalEdgeStyle;rounded=0;orthogonalLoop=1;jettySize=auto;html=1;" parent="WIyWlLk6GJQsqaUBKTNV-1" source="WIyWlLk6GJQsqaUBKTNV-6" target="AEH5Qim6zTNKWPLMUNQu-0" edge="1">
          <mxGeometry relative="1" as="geometry" />
        </mxCell>
        <mxCell id="AEH5Qim6zTNKWPLMUNQu-18" value="Não" style="edgeLabel;html=1;align=center;verticalAlign=middle;resizable=0;points=[];" parent="AEH5Qim6zTNKWPLMUNQu-8" vertex="1" connectable="0">
          <mxGeometry x="0.4585" y="1" relative="1" as="geometry">
            <mxPoint x="-13" y="1" as="offset" />
          </mxGeometry>
        </mxCell>
        <mxCell id="WIyWlLk6GJQsqaUBKTNV-6" value="Opção == &quot;1&quot;" style="rhombus;whiteSpace=wrap;html=1;shadow=0;fontFamily=Helvetica;fontSize=12;align=center;strokeWidth=1;spacing=6;spacingTop=-4;" parent="WIyWlLk6GJQsqaUBKTNV-1" vertex="1">
          <mxGeometry x="270" y="300" width="100" height="80" as="geometry" />
        </mxCell>
        <mxCell id="AEH5Qim6zTNKWPLMUNQu-10" value="" style="edgeStyle=orthogonalEdgeStyle;rounded=0;orthogonalLoop=1;jettySize=auto;html=1;" parent="WIyWlLk6GJQsqaUBKTNV-1" source="AEH5Qim6zTNKWPLMUNQu-0" target="AEH5Qim6zTNKWPLMUNQu-9" edge="1">
          <mxGeometry relative="1" as="geometry" />
        </mxCell>
        <mxCell id="AEH5Qim6zTNKWPLMUNQu-19" value="" style="edgeStyle=orthogonalEdgeStyle;rounded=0;orthogonalLoop=1;jettySize=auto;html=1;" parent="WIyWlLk6GJQsqaUBKTNV-1" source="AEH5Qim6zTNKWPLMUNQu-0" target="AEH5Qim6zTNKWPLMUNQu-9" edge="1">
          <mxGeometry relative="1" as="geometry" />
        </mxCell>
        <mxCell id="AEH5Qim6zTNKWPLMUNQu-20" value="Não" style="edgeLabel;html=1;align=center;verticalAlign=middle;resizable=0;points=[];" parent="AEH5Qim6zTNKWPLMUNQu-19" vertex="1" connectable="0">
          <mxGeometry x="-0.1328" relative="1" as="geometry">
            <mxPoint as="offset" />
          </mxGeometry>
        </mxCell>
        <mxCell id="AEH5Qim6zTNKWPLMUNQu-60" style="edgeStyle=orthogonalEdgeStyle;rounded=0;orthogonalLoop=1;jettySize=auto;html=1;entryX=0.5;entryY=1;entryDx=0;entryDy=0;" parent="WIyWlLk6GJQsqaUBKTNV-1" source="AEH5Qim6zTNKWPLMUNQu-0" target="AEH5Qim6zTNKWPLMUNQu-54" edge="1">
          <mxGeometry relative="1" as="geometry" />
        </mxCell>
        <mxCell id="t4PLg8slm5s5d_9_sdZY-17" value="Sim" style="edgeLabel;html=1;align=center;verticalAlign=middle;resizable=0;points=[];" vertex="1" connectable="0" parent="AEH5Qim6zTNKWPLMUNQu-60">
          <mxGeometry x="-0.0118" y="3" relative="1" as="geometry">
            <mxPoint as="offset" />
          </mxGeometry>
        </mxCell>
        <mxCell id="AEH5Qim6zTNKWPLMUNQu-0" value="Opção == &quot;2&quot;" style="rhombus;whiteSpace=wrap;html=1;shadow=0;fontFamily=Helvetica;fontSize=12;align=center;strokeWidth=1;spacing=6;spacingTop=-4;" parent="WIyWlLk6GJQsqaUBKTNV-1" vertex="1">
          <mxGeometry x="430" y="300" width="100" height="80" as="geometry" />
        </mxCell>
        <mxCell id="AEH5Qim6zTNKWPLMUNQu-3" style="edgeStyle=orthogonalEdgeStyle;rounded=0;orthogonalLoop=1;jettySize=auto;html=1;" parent="WIyWlLk6GJQsqaUBKTNV-1" source="AEH5Qim6zTNKWPLMUNQu-1" target="AEH5Qim6zTNKWPLMUNQu-2" edge="1">
          <mxGeometry relative="1" as="geometry" />
        </mxCell>
        <mxCell id="AEH5Qim6zTNKWPLMUNQu-1" value="Selecione uma opção" style="rounded=0;whiteSpace=wrap;html=1;" parent="WIyWlLk6GJQsqaUBKTNV-1" vertex="1">
          <mxGeometry x="160" width="150" height="40" as="geometry" />
        </mxCell>
        <mxCell id="AEH5Qim6zTNKWPLMUNQu-6" style="edgeStyle=orthogonalEdgeStyle;rounded=0;orthogonalLoop=1;jettySize=auto;html=1;entryX=0;entryY=0.5;entryDx=0;entryDy=0;" parent="WIyWlLk6GJQsqaUBKTNV-1" source="AEH5Qim6zTNKWPLMUNQu-2" target="WIyWlLk6GJQsqaUBKTNV-6" edge="1">
          <mxGeometry relative="1" as="geometry" />
        </mxCell>
        <mxCell id="AEH5Qim6zTNKWPLMUNQu-7" value="Sim" style="edgeLabel;html=1;align=center;verticalAlign=middle;resizable=0;points=[];" parent="AEH5Qim6zTNKWPLMUNQu-6" vertex="1" connectable="0">
          <mxGeometry x="0.4783" relative="1" as="geometry">
            <mxPoint x="-5" y="-30" as="offset" />
          </mxGeometry>
        </mxCell>
        <mxCell id="AEH5Qim6zTNKWPLMUNQu-58" style="edgeStyle=orthogonalEdgeStyle;rounded=0;orthogonalLoop=1;jettySize=auto;html=1;entryX=1;entryY=0.5;entryDx=0;entryDy=0;" parent="WIyWlLk6GJQsqaUBKTNV-1" source="AEH5Qim6zTNKWPLMUNQu-2" target="AEH5Qim6zTNKWPLMUNQu-1" edge="1">
          <mxGeometry relative="1" as="geometry">
            <Array as="points">
              <mxPoint x="330" y="120" />
              <mxPoint x="330" y="10" />
            </Array>
          </mxGeometry>
        </mxCell>
        <mxCell id="AEH5Qim6zTNKWPLMUNQu-59" value="Não" style="edgeLabel;html=1;align=center;verticalAlign=middle;resizable=0;points=[];" parent="AEH5Qim6zTNKWPLMUNQu-58" vertex="1" connectable="0">
          <mxGeometry x="-0.0222" y="-1" relative="1" as="geometry">
            <mxPoint as="offset" />
          </mxGeometry>
        </mxCell>
        <mxCell id="AEH5Qim6zTNKWPLMUNQu-2" value="Opção é válida?" style="rhombus;whiteSpace=wrap;html=1;" parent="WIyWlLk6GJQsqaUBKTNV-1" vertex="1">
          <mxGeometry x="167.5" y="80" width="135" height="80" as="geometry" />
        </mxCell>
        <mxCell id="AEH5Qim6zTNKWPLMUNQu-12" style="edgeStyle=orthogonalEdgeStyle;rounded=0;orthogonalLoop=1;jettySize=auto;html=1;entryX=0;entryY=0.5;entryDx=0;entryDy=0;" parent="WIyWlLk6GJQsqaUBKTNV-1" source="AEH5Qim6zTNKWPLMUNQu-9" target="AEH5Qim6zTNKWPLMUNQu-11" edge="1">
          <mxGeometry relative="1" as="geometry" />
        </mxCell>
        <mxCell id="AEH5Qim6zTNKWPLMUNQu-21" value="Não" style="edgeLabel;html=1;align=center;verticalAlign=middle;resizable=0;points=[];" parent="AEH5Qim6zTNKWPLMUNQu-12" vertex="1" connectable="0">
          <mxGeometry x="-0.0648" y="-1" relative="1" as="geometry">
            <mxPoint as="offset" />
          </mxGeometry>
        </mxCell>
        <mxCell id="t4PLg8slm5s5d_9_sdZY-8" value="" style="edgeStyle=orthogonalEdgeStyle;rounded=0;orthogonalLoop=1;jettySize=auto;html=1;" edge="1" parent="WIyWlLk6GJQsqaUBKTNV-1" source="AEH5Qim6zTNKWPLMUNQu-9" target="t4PLg8slm5s5d_9_sdZY-7">
          <mxGeometry relative="1" as="geometry" />
        </mxCell>
        <mxCell id="t4PLg8slm5s5d_9_sdZY-18" value="Sim" style="edgeLabel;html=1;align=center;verticalAlign=middle;resizable=0;points=[];" vertex="1" connectable="0" parent="t4PLg8slm5s5d_9_sdZY-8">
          <mxGeometry x="-0.0882" y="-1" relative="1" as="geometry">
            <mxPoint as="offset" />
          </mxGeometry>
        </mxCell>
        <mxCell id="AEH5Qim6zTNKWPLMUNQu-9" value="Opção == 3" style="rhombus;whiteSpace=wrap;html=1;shadow=0;strokeWidth=1;spacing=6;spacingTop=-4;" parent="WIyWlLk6GJQsqaUBKTNV-1" vertex="1">
          <mxGeometry x="660" y="300" width="90" height="80" as="geometry" />
        </mxCell>
        <mxCell id="AEH5Qim6zTNKWPLMUNQu-15" value="" style="edgeStyle=orthogonalEdgeStyle;rounded=0;orthogonalLoop=1;jettySize=auto;html=1;" parent="WIyWlLk6GJQsqaUBKTNV-1" source="AEH5Qim6zTNKWPLMUNQu-11" target="AEH5Qim6zTNKWPLMUNQu-14" edge="1">
          <mxGeometry relative="1" as="geometry" />
        </mxCell>
        <mxCell id="AEH5Qim6zTNKWPLMUNQu-22" value="Sim" style="edgeLabel;html=1;align=center;verticalAlign=middle;resizable=0;points=[];" parent="AEH5Qim6zTNKWPLMUNQu-15" vertex="1" connectable="0">
          <mxGeometry x="-0.2166" y="-1" relative="1" as="geometry">
            <mxPoint as="offset" />
          </mxGeometry>
        </mxCell>
        <mxCell id="AEH5Qim6zTNKWPLMUNQu-11" value="Opção == 4" style="rhombus;whiteSpace=wrap;html=1;shadow=0;strokeWidth=1;spacing=6;spacingTop=-4;" parent="WIyWlLk6GJQsqaUBKTNV-1" vertex="1">
          <mxGeometry x="850" y="300" width="80" height="80" as="geometry" />
        </mxCell>
        <mxCell id="AEH5Qim6zTNKWPLMUNQu-14" value="FIM" style="ellipse;whiteSpace=wrap;html=1;shadow=0;strokeWidth=1;spacing=6;spacingTop=-4;" parent="WIyWlLk6GJQsqaUBKTNV-1" vertex="1">
          <mxGeometry x="980" y="300" width="80" height="80" as="geometry" />
        </mxCell>
        <mxCell id="AEH5Qim6zTNKWPLMUNQu-17" style="edgeStyle=orthogonalEdgeStyle;rounded=0;orthogonalLoop=1;jettySize=auto;html=1;" parent="WIyWlLk6GJQsqaUBKTNV-1" source="AEH5Qim6zTNKWPLMUNQu-16" target="AEH5Qim6zTNKWPLMUNQu-1" edge="1">
          <mxGeometry relative="1" as="geometry" />
        </mxCell>
        <mxCell id="AEH5Qim6zTNKWPLMUNQu-16" value="INICIO" style="ellipse;whiteSpace=wrap;html=1;shadow=0;strokeWidth=1;spacing=6;spacingTop=-4;" parent="WIyWlLk6GJQsqaUBKTNV-1" vertex="1">
          <mxGeometry x="195" y="-120" width="80" height="80" as="geometry" />
        </mxCell>
        <mxCell id="AEH5Qim6zTNKWPLMUNQu-31" style="edgeStyle=orthogonalEdgeStyle;rounded=0;orthogonalLoop=1;jettySize=auto;html=1;entryX=0.5;entryY=0;entryDx=0;entryDy=0;" parent="WIyWlLk6GJQsqaUBKTNV-1" source="AEH5Qim6zTNKWPLMUNQu-26" target="AEH5Qim6zTNKWPLMUNQu-29" edge="1">
          <mxGeometry relative="1" as="geometry" />
        </mxCell>
        <mxCell id="AEH5Qim6zTNKWPLMUNQu-26" value="Insira seu nome:" style="shape=manualInput;whiteSpace=wrap;html=1;" parent="WIyWlLk6GJQsqaUBKTNV-1" vertex="1">
          <mxGeometry x="280" y="410" width="80" height="80" as="geometry" />
        </mxCell>
        <mxCell id="AEH5Qim6zTNKWPLMUNQu-27" style="edgeStyle=orthogonalEdgeStyle;rounded=0;orthogonalLoop=1;jettySize=auto;html=1;entryX=0.494;entryY=0.213;entryDx=0;entryDy=0;entryPerimeter=0;" parent="WIyWlLk6GJQsqaUBKTNV-1" source="WIyWlLk6GJQsqaUBKTNV-6" target="AEH5Qim6zTNKWPLMUNQu-26" edge="1">
          <mxGeometry relative="1" as="geometry" />
        </mxCell>
        <mxCell id="AEH5Qim6zTNKWPLMUNQu-28" value="Sim" style="edgeLabel;html=1;align=center;verticalAlign=middle;resizable=0;points=[];" parent="AEH5Qim6zTNKWPLMUNQu-27" vertex="1" connectable="0">
          <mxGeometry x="-0.2584" relative="1" as="geometry">
            <mxPoint as="offset" />
          </mxGeometry>
        </mxCell>
        <mxCell id="AEH5Qim6zTNKWPLMUNQu-29" value="Nome é válido?" style="rhombus;whiteSpace=wrap;html=1;" parent="WIyWlLk6GJQsqaUBKTNV-1" vertex="1">
          <mxGeometry x="280" y="520" width="80" height="80" as="geometry" />
        </mxCell>
        <mxCell id="AEH5Qim6zTNKWPLMUNQu-30" style="edgeStyle=orthogonalEdgeStyle;rounded=0;orthogonalLoop=1;jettySize=auto;html=1;entryX=0.003;entryY=0.664;entryDx=0;entryDy=0;entryPerimeter=0;" parent="WIyWlLk6GJQsqaUBKTNV-1" source="AEH5Qim6zTNKWPLMUNQu-29" target="AEH5Qim6zTNKWPLMUNQu-26" edge="1">
          <mxGeometry relative="1" as="geometry">
            <Array as="points">
              <mxPoint x="260" y="560" />
              <mxPoint x="260" y="463" />
            </Array>
          </mxGeometry>
        </mxCell>
        <mxCell id="AEH5Qim6zTNKWPLMUNQu-33" value="Não" style="edgeLabel;html=1;align=center;verticalAlign=middle;resizable=0;points=[];" parent="AEH5Qim6zTNKWPLMUNQu-30" vertex="1" connectable="0">
          <mxGeometry x="-0.3874" relative="1" as="geometry">
            <mxPoint y="-33" as="offset" />
          </mxGeometry>
        </mxCell>
        <mxCell id="AEH5Qim6zTNKWPLMUNQu-37" style="edgeStyle=orthogonalEdgeStyle;rounded=0;orthogonalLoop=1;jettySize=auto;html=1;entryX=0.5;entryY=0;entryDx=0;entryDy=0;" parent="WIyWlLk6GJQsqaUBKTNV-1" source="AEH5Qim6zTNKWPLMUNQu-34" target="AEH5Qim6zTNKWPLMUNQu-36" edge="1">
          <mxGeometry relative="1" as="geometry" />
        </mxCell>
        <mxCell id="AEH5Qim6zTNKWPLMUNQu-34" value="Insira sua idade" style="shape=manualInput;whiteSpace=wrap;html=1;" parent="WIyWlLk6GJQsqaUBKTNV-1" vertex="1">
          <mxGeometry x="280" y="630" width="80" height="80" as="geometry" />
        </mxCell>
        <mxCell id="AEH5Qim6zTNKWPLMUNQu-35" style="edgeStyle=orthogonalEdgeStyle;rounded=0;orthogonalLoop=1;jettySize=auto;html=1;entryX=0.512;entryY=0.208;entryDx=0;entryDy=0;entryPerimeter=0;" parent="WIyWlLk6GJQsqaUBKTNV-1" source="AEH5Qim6zTNKWPLMUNQu-29" target="AEH5Qim6zTNKWPLMUNQu-34" edge="1">
          <mxGeometry relative="1" as="geometry">
            <mxPoint x="320" y="630" as="targetPoint" />
          </mxGeometry>
        </mxCell>
        <mxCell id="AEH5Qim6zTNKWPLMUNQu-36" value="Idade é válida?" style="rhombus;whiteSpace=wrap;html=1;" parent="WIyWlLk6GJQsqaUBKTNV-1" vertex="1">
          <mxGeometry x="265" y="760" width="110" height="80" as="geometry" />
        </mxCell>
        <mxCell id="AEH5Qim6zTNKWPLMUNQu-38" style="edgeStyle=orthogonalEdgeStyle;rounded=0;orthogonalLoop=1;jettySize=auto;html=1;entryX=0.009;entryY=0.657;entryDx=0;entryDy=0;entryPerimeter=0;" parent="WIyWlLk6GJQsqaUBKTNV-1" source="AEH5Qim6zTNKWPLMUNQu-36" target="AEH5Qim6zTNKWPLMUNQu-34" edge="1">
          <mxGeometry relative="1" as="geometry">
            <Array as="points">
              <mxPoint x="245" y="800" />
              <mxPoint x="245" y="683" />
            </Array>
          </mxGeometry>
        </mxCell>
        <mxCell id="AEH5Qim6zTNKWPLMUNQu-39" value="Não" style="edgeLabel;html=1;align=center;verticalAlign=middle;resizable=0;points=[];" parent="AEH5Qim6zTNKWPLMUNQu-38" vertex="1" connectable="0">
          <mxGeometry x="-0.2028" y="-1" relative="1" as="geometry">
            <mxPoint as="offset" />
          </mxGeometry>
        </mxCell>
        <mxCell id="AEH5Qim6zTNKWPLMUNQu-43" style="edgeStyle=orthogonalEdgeStyle;rounded=0;orthogonalLoop=1;jettySize=auto;html=1;entryX=0.5;entryY=0;entryDx=0;entryDy=0;" parent="WIyWlLk6GJQsqaUBKTNV-1" source="AEH5Qim6zTNKWPLMUNQu-40" target="AEH5Qim6zTNKWPLMUNQu-42" edge="1">
          <mxGeometry relative="1" as="geometry" />
        </mxCell>
        <mxCell id="AEH5Qim6zTNKWPLMUNQu-40" value="Insira seu CEP" style="shape=manualInput;whiteSpace=wrap;html=1;" parent="WIyWlLk6GJQsqaUBKTNV-1" vertex="1">
          <mxGeometry x="280" y="880" width="80" height="80" as="geometry" />
        </mxCell>
        <mxCell id="AEH5Qim6zTNKWPLMUNQu-41" style="edgeStyle=orthogonalEdgeStyle;rounded=0;orthogonalLoop=1;jettySize=auto;html=1;entryX=0.499;entryY=0.205;entryDx=0;entryDy=0;entryPerimeter=0;" parent="WIyWlLk6GJQsqaUBKTNV-1" source="AEH5Qim6zTNKWPLMUNQu-36" target="AEH5Qim6zTNKWPLMUNQu-40" edge="1">
          <mxGeometry relative="1" as="geometry" />
        </mxCell>
        <mxCell id="AEH5Qim6zTNKWPLMUNQu-44" style="edgeStyle=orthogonalEdgeStyle;rounded=0;orthogonalLoop=1;jettySize=auto;html=1;entryX=0;entryY=0.75;entryDx=0;entryDy=0;" parent="WIyWlLk6GJQsqaUBKTNV-1" source="AEH5Qim6zTNKWPLMUNQu-42" target="AEH5Qim6zTNKWPLMUNQu-40" edge="1">
          <mxGeometry relative="1" as="geometry">
            <Array as="points">
              <mxPoint x="260" y="1040" />
              <mxPoint x="260" y="940" />
            </Array>
          </mxGeometry>
        </mxCell>
        <mxCell id="AEH5Qim6zTNKWPLMUNQu-45" value="Não" style="edgeLabel;html=1;align=center;verticalAlign=middle;resizable=0;points=[];" parent="AEH5Qim6zTNKWPLMUNQu-44" vertex="1" connectable="0">
          <mxGeometry x="0.0956" y="3" relative="1" as="geometry">
            <mxPoint as="offset" />
          </mxGeometry>
        </mxCell>
        <mxCell id="AEH5Qim6zTNKWPLMUNQu-42" value="CEP é válido?" style="rhombus;whiteSpace=wrap;html=1;" parent="WIyWlLk6GJQsqaUBKTNV-1" vertex="1">
          <mxGeometry x="270" y="1000" width="100" height="80" as="geometry" />
        </mxCell>
        <mxCell id="AEH5Qim6zTNKWPLMUNQu-49" value="" style="edgeStyle=orthogonalEdgeStyle;rounded=0;orthogonalLoop=1;jettySize=auto;html=1;" parent="WIyWlLk6GJQsqaUBKTNV-1" source="AEH5Qim6zTNKWPLMUNQu-46" target="AEH5Qim6zTNKWPLMUNQu-48" edge="1">
          <mxGeometry relative="1" as="geometry" />
        </mxCell>
        <mxCell id="AEH5Qim6zTNKWPLMUNQu-46" value="Insira o número da residência" style="shape=manualInput;whiteSpace=wrap;html=1;" parent="WIyWlLk6GJQsqaUBKTNV-1" vertex="1">
          <mxGeometry x="280" y="1120" width="80" height="100" as="geometry" />
        </mxCell>
        <mxCell id="AEH5Qim6zTNKWPLMUNQu-47" style="edgeStyle=orthogonalEdgeStyle;rounded=0;orthogonalLoop=1;jettySize=auto;html=1;entryX=0.504;entryY=0.16;entryDx=0;entryDy=0;entryPerimeter=0;" parent="WIyWlLk6GJQsqaUBKTNV-1" source="AEH5Qim6zTNKWPLMUNQu-42" target="AEH5Qim6zTNKWPLMUNQu-46" edge="1">
          <mxGeometry relative="1" as="geometry" />
        </mxCell>
        <mxCell id="AEH5Qim6zTNKWPLMUNQu-53" value="" style="edgeStyle=orthogonalEdgeStyle;rounded=0;orthogonalLoop=1;jettySize=auto;html=1;" parent="WIyWlLk6GJQsqaUBKTNV-1" source="AEH5Qim6zTNKWPLMUNQu-48" target="AEH5Qim6zTNKWPLMUNQu-52" edge="1">
          <mxGeometry relative="1" as="geometry" />
        </mxCell>
        <mxCell id="AEH5Qim6zTNKWPLMUNQu-48" value="Número da residência é válido?" style="rhombus;whiteSpace=wrap;html=1;" parent="WIyWlLk6GJQsqaUBKTNV-1" vertex="1">
          <mxGeometry x="240" y="1310" width="160" height="100" as="geometry" />
        </mxCell>
        <mxCell id="AEH5Qim6zTNKWPLMUNQu-50" style="edgeStyle=orthogonalEdgeStyle;rounded=0;orthogonalLoop=1;jettySize=auto;html=1;entryX=0.004;entryY=0.703;entryDx=0;entryDy=0;entryPerimeter=0;" parent="WIyWlLk6GJQsqaUBKTNV-1" source="AEH5Qim6zTNKWPLMUNQu-48" target="AEH5Qim6zTNKWPLMUNQu-46" edge="1">
          <mxGeometry relative="1" as="geometry">
            <Array as="points">
              <mxPoint x="220" y="1360" />
              <mxPoint x="220" y="1190" />
            </Array>
          </mxGeometry>
        </mxCell>
        <mxCell id="AEH5Qim6zTNKWPLMUNQu-51" value="Não" style="edgeLabel;html=1;align=center;verticalAlign=middle;resizable=0;points=[];" parent="AEH5Qim6zTNKWPLMUNQu-50" vertex="1" connectable="0">
          <mxGeometry x="-0.3293" y="-3" relative="1" as="geometry">
            <mxPoint as="offset" />
          </mxGeometry>
        </mxCell>
        <mxCell id="t4PLg8slm5s5d_9_sdZY-4" style="edgeStyle=orthogonalEdgeStyle;rounded=0;orthogonalLoop=1;jettySize=auto;html=1;" edge="1" parent="WIyWlLk6GJQsqaUBKTNV-1" source="AEH5Qim6zTNKWPLMUNQu-52">
          <mxGeometry relative="1" as="geometry">
            <mxPoint x="170" y="40" as="targetPoint" />
            <Array as="points">
              <mxPoint x="140" y="1520" />
              <mxPoint x="140" y="60" />
              <mxPoint x="170" y="60" />
              <mxPoint x="170" y="41" />
            </Array>
          </mxGeometry>
        </mxCell>
        <mxCell id="AEH5Qim6zTNKWPLMUNQu-52" value="Crie o objeto usuário" style="whiteSpace=wrap;html=1;" parent="WIyWlLk6GJQsqaUBKTNV-1" vertex="1">
          <mxGeometry x="260" y="1490" width="120" height="60" as="geometry" />
        </mxCell>
        <mxCell id="AEH5Qim6zTNKWPLMUNQu-61" style="edgeStyle=orthogonalEdgeStyle;rounded=0;orthogonalLoop=1;jettySize=auto;html=1;entryX=1;entryY=0.5;entryDx=0;entryDy=0;" parent="WIyWlLk6GJQsqaUBKTNV-1" source="AEH5Qim6zTNKWPLMUNQu-54" target="AEH5Qim6zTNKWPLMUNQu-1" edge="1">
          <mxGeometry relative="1" as="geometry">
            <Array as="points">
              <mxPoint x="370" y="195" />
              <mxPoint x="370" y="10" />
            </Array>
          </mxGeometry>
        </mxCell>
        <mxCell id="AEH5Qim6zTNKWPLMUNQu-62" value="Não" style="edgeLabel;html=1;align=center;verticalAlign=middle;resizable=0;points=[];" parent="AEH5Qim6zTNKWPLMUNQu-61" vertex="1" connectable="0">
          <mxGeometry x="-0.2839" relative="1" as="geometry">
            <mxPoint as="offset" />
          </mxGeometry>
        </mxCell>
        <mxCell id="AEH5Qim6zTNKWPLMUNQu-65" value="" style="edgeStyle=orthogonalEdgeStyle;rounded=0;orthogonalLoop=1;jettySize=auto;html=1;" parent="WIyWlLk6GJQsqaUBKTNV-1" source="AEH5Qim6zTNKWPLMUNQu-54" target="AEH5Qim6zTNKWPLMUNQu-64" edge="1">
          <mxGeometry relative="1" as="geometry" />
        </mxCell>
        <mxCell id="AEH5Qim6zTNKWPLMUNQu-54" value="O usuário existe e não tem carro?" style="rhombus;whiteSpace=wrap;html=1;shadow=0;strokeWidth=1;spacing=6;spacingTop=-4;" parent="WIyWlLk6GJQsqaUBKTNV-1" vertex="1">
          <mxGeometry x="381.25" y="140" width="197.5" height="110" as="geometry" />
        </mxCell>
        <mxCell id="AEH5Qim6zTNKWPLMUNQu-67" value="" style="edgeStyle=orthogonalEdgeStyle;rounded=0;orthogonalLoop=1;jettySize=auto;html=1;exitX=0.504;exitY=0.154;exitDx=0;exitDy=0;exitPerimeter=0;" parent="WIyWlLk6GJQsqaUBKTNV-1" source="AEH5Qim6zTNKWPLMUNQu-64" target="AEH5Qim6zTNKWPLMUNQu-66" edge="1">
          <mxGeometry relative="1" as="geometry" />
        </mxCell>
        <mxCell id="AEH5Qim6zTNKWPLMUNQu-64" value="Insira a marca do seu carro" style="shape=manualInput;whiteSpace=wrap;html=1;" parent="WIyWlLk6GJQsqaUBKTNV-1" vertex="1">
          <mxGeometry x="440" y="20" width="80" height="90" as="geometry" />
        </mxCell>
        <mxCell id="AEH5Qim6zTNKWPLMUNQu-68" style="edgeStyle=orthogonalEdgeStyle;rounded=0;orthogonalLoop=1;jettySize=auto;html=1;entryX=1;entryY=0.5;entryDx=0;entryDy=0;" parent="WIyWlLk6GJQsqaUBKTNV-1" source="AEH5Qim6zTNKWPLMUNQu-66" target="AEH5Qim6zTNKWPLMUNQu-64" edge="1">
          <mxGeometry relative="1" as="geometry">
            <Array as="points">
              <mxPoint x="550" y="-40" />
              <mxPoint x="550" y="65" />
            </Array>
          </mxGeometry>
        </mxCell>
        <mxCell id="AEH5Qim6zTNKWPLMUNQu-69" value="Não" style="edgeLabel;html=1;align=center;verticalAlign=middle;resizable=0;points=[];" parent="AEH5Qim6zTNKWPLMUNQu-68" vertex="1" connectable="0">
          <mxGeometry x="0.0065" y="2" relative="1" as="geometry">
            <mxPoint as="offset" />
          </mxGeometry>
        </mxCell>
        <mxCell id="AEH5Qim6zTNKWPLMUNQu-71" value="" style="edgeStyle=orthogonalEdgeStyle;rounded=0;orthogonalLoop=1;jettySize=auto;html=1;" parent="WIyWlLk6GJQsqaUBKTNV-1" source="AEH5Qim6zTNKWPLMUNQu-66" target="AEH5Qim6zTNKWPLMUNQu-70" edge="1">
          <mxGeometry relative="1" as="geometry" />
        </mxCell>
        <mxCell id="AEH5Qim6zTNKWPLMUNQu-77" value="Sim" style="edgeLabel;html=1;align=center;verticalAlign=middle;resizable=0;points=[];" parent="AEH5Qim6zTNKWPLMUNQu-71" vertex="1" connectable="0">
          <mxGeometry x="-0.1083" y="3" relative="1" as="geometry">
            <mxPoint as="offset" />
          </mxGeometry>
        </mxCell>
        <mxCell id="AEH5Qim6zTNKWPLMUNQu-66" value="Marca é válida?" style="rhombus;whiteSpace=wrap;html=1;" parent="WIyWlLk6GJQsqaUBKTNV-1" vertex="1">
          <mxGeometry x="430" y="-80" width="100" height="80" as="geometry" />
        </mxCell>
        <mxCell id="AEH5Qim6zTNKWPLMUNQu-73" value="" style="edgeStyle=orthogonalEdgeStyle;rounded=0;orthogonalLoop=1;jettySize=auto;html=1;exitX=0.494;exitY=0.154;exitDx=0;exitDy=0;exitPerimeter=0;" parent="WIyWlLk6GJQsqaUBKTNV-1" source="AEH5Qim6zTNKWPLMUNQu-70" target="AEH5Qim6zTNKWPLMUNQu-72" edge="1">
          <mxGeometry relative="1" as="geometry" />
        </mxCell>
        <mxCell id="AEH5Qim6zTNKWPLMUNQu-70" value="Insira o modelo do seu carro:" style="shape=manualInput;whiteSpace=wrap;html=1;" parent="WIyWlLk6GJQsqaUBKTNV-1" vertex="1">
          <mxGeometry x="440" y="-210" width="80" height="90" as="geometry" />
        </mxCell>
        <mxCell id="AEH5Qim6zTNKWPLMUNQu-75" style="edgeStyle=orthogonalEdgeStyle;rounded=0;orthogonalLoop=1;jettySize=auto;html=1;entryX=1;entryY=0.5;entryDx=0;entryDy=0;" parent="WIyWlLk6GJQsqaUBKTNV-1" source="AEH5Qim6zTNKWPLMUNQu-72" target="AEH5Qim6zTNKWPLMUNQu-70" edge="1">
          <mxGeometry relative="1" as="geometry">
            <Array as="points">
              <mxPoint x="545" y="-280" />
              <mxPoint x="545" y="-165" />
            </Array>
          </mxGeometry>
        </mxCell>
        <mxCell id="AEH5Qim6zTNKWPLMUNQu-76" value="Não&lt;div&gt;&lt;br&gt;&lt;/div&gt;" style="edgeLabel;html=1;align=center;verticalAlign=middle;resizable=0;points=[];" parent="AEH5Qim6zTNKWPLMUNQu-75" vertex="1" connectable="0">
          <mxGeometry x="-0.0146" y="2" relative="1" as="geometry">
            <mxPoint as="offset" />
          </mxGeometry>
        </mxCell>
        <mxCell id="AEH5Qim6zTNKWPLMUNQu-79" value="" style="edgeStyle=orthogonalEdgeStyle;rounded=0;orthogonalLoop=1;jettySize=auto;html=1;" parent="WIyWlLk6GJQsqaUBKTNV-1" source="AEH5Qim6zTNKWPLMUNQu-72" target="AEH5Qim6zTNKWPLMUNQu-78" edge="1">
          <mxGeometry relative="1" as="geometry" />
        </mxCell>
        <mxCell id="AEH5Qim6zTNKWPLMUNQu-80" value="Sim" style="edgeLabel;html=1;align=center;verticalAlign=middle;resizable=0;points=[];" parent="AEH5Qim6zTNKWPLMUNQu-79" vertex="1" connectable="0">
          <mxGeometry x="-0.1533" relative="1" as="geometry">
            <mxPoint as="offset" />
          </mxGeometry>
        </mxCell>
        <mxCell id="AEH5Qim6zTNKWPLMUNQu-72" value="Modelo é válido?" style="rhombus;whiteSpace=wrap;html=1;" parent="WIyWlLk6GJQsqaUBKTNV-1" vertex="1">
          <mxGeometry x="435" y="-320" width="90" height="80" as="geometry" />
        </mxCell>
        <mxCell id="AEH5Qim6zTNKWPLMUNQu-82" value="" style="edgeStyle=orthogonalEdgeStyle;rounded=0;orthogonalLoop=1;jettySize=auto;html=1;exitX=0.504;exitY=0.194;exitDx=0;exitDy=0;exitPerimeter=0;" parent="WIyWlLk6GJQsqaUBKTNV-1" source="AEH5Qim6zTNKWPLMUNQu-78" target="AEH5Qim6zTNKWPLMUNQu-81" edge="1">
          <mxGeometry relative="1" as="geometry" />
        </mxCell>
        <mxCell id="AEH5Qim6zTNKWPLMUNQu-78" value="Insira o ano do seu carro:" style="shape=manualInput;whiteSpace=wrap;html=1;" parent="WIyWlLk6GJQsqaUBKTNV-1" vertex="1">
          <mxGeometry x="440" y="-450" width="80" height="80" as="geometry" />
        </mxCell>
        <mxCell id="AEH5Qim6zTNKWPLMUNQu-83" style="edgeStyle=orthogonalEdgeStyle;rounded=0;orthogonalLoop=1;jettySize=auto;html=1;entryX=1;entryY=0.5;entryDx=0;entryDy=0;" parent="WIyWlLk6GJQsqaUBKTNV-1" source="AEH5Qim6zTNKWPLMUNQu-81" target="AEH5Qim6zTNKWPLMUNQu-78" edge="1">
          <mxGeometry relative="1" as="geometry">
            <Array as="points">
              <mxPoint x="560" y="-530" />
              <mxPoint x="560" y="-410" />
            </Array>
          </mxGeometry>
        </mxCell>
        <mxCell id="AEH5Qim6zTNKWPLMUNQu-84" value="Não&lt;div&gt;&lt;br&gt;&lt;/div&gt;" style="edgeLabel;html=1;align=center;verticalAlign=middle;resizable=0;points=[];" parent="AEH5Qim6zTNKWPLMUNQu-83" vertex="1" connectable="0">
          <mxGeometry x="0.0611" y="-2" relative="1" as="geometry">
            <mxPoint as="offset" />
          </mxGeometry>
        </mxCell>
        <mxCell id="AEH5Qim6zTNKWPLMUNQu-86" value="" style="edgeStyle=orthogonalEdgeStyle;rounded=0;orthogonalLoop=1;jettySize=auto;html=1;" parent="WIyWlLk6GJQsqaUBKTNV-1" source="AEH5Qim6zTNKWPLMUNQu-81" target="AEH5Qim6zTNKWPLMUNQu-85" edge="1">
          <mxGeometry relative="1" as="geometry" />
        </mxCell>
        <mxCell id="AEH5Qim6zTNKWPLMUNQu-81" value="Ano do carro é válido?" style="rhombus;whiteSpace=wrap;html=1;" parent="WIyWlLk6GJQsqaUBKTNV-1" vertex="1">
          <mxGeometry x="420" y="-570" width="120" height="80" as="geometry" />
        </mxCell>
        <mxCell id="AEH5Qim6zTNKWPLMUNQu-90" value="" style="edgeStyle=orthogonalEdgeStyle;rounded=0;orthogonalLoop=1;jettySize=auto;html=1;exitX=0.504;exitY=0.204;exitDx=0;exitDy=0;exitPerimeter=0;" parent="WIyWlLk6GJQsqaUBKTNV-1" source="AEH5Qim6zTNKWPLMUNQu-85" target="AEH5Qim6zTNKWPLMUNQu-87" edge="1">
          <mxGeometry relative="1" as="geometry" />
        </mxCell>
        <mxCell id="AEH5Qim6zTNKWPLMUNQu-85" value="Insira a placa do seu carro:" style="shape=manualInput;whiteSpace=wrap;html=1;" parent="WIyWlLk6GJQsqaUBKTNV-1" vertex="1">
          <mxGeometry x="440" y="-700" width="80" height="80" as="geometry" />
        </mxCell>
        <mxCell id="t4PLg8slm5s5d_9_sdZY-1" value="" style="edgeStyle=orthogonalEdgeStyle;rounded=0;orthogonalLoop=1;jettySize=auto;html=1;" edge="1" parent="WIyWlLk6GJQsqaUBKTNV-1" source="AEH5Qim6zTNKWPLMUNQu-87" target="t4PLg8slm5s5d_9_sdZY-0">
          <mxGeometry relative="1" as="geometry" />
        </mxCell>
        <mxCell id="AEH5Qim6zTNKWPLMUNQu-87" value="Placa é válida?" style="rhombus;whiteSpace=wrap;html=1;" parent="WIyWlLk6GJQsqaUBKTNV-1" vertex="1">
          <mxGeometry x="425" y="-810" width="110" height="80" as="geometry" />
        </mxCell>
        <mxCell id="AEH5Qim6zTNKWPLMUNQu-88" style="edgeStyle=orthogonalEdgeStyle;rounded=0;orthogonalLoop=1;jettySize=auto;html=1;" parent="WIyWlLk6GJQsqaUBKTNV-1" source="AEH5Qim6zTNKWPLMUNQu-87" edge="1">
          <mxGeometry relative="1" as="geometry">
            <mxPoint x="520" y="-650" as="targetPoint" />
            <Array as="points">
              <mxPoint x="560" y="-770" />
              <mxPoint x="560" y="-650" />
            </Array>
          </mxGeometry>
        </mxCell>
        <mxCell id="AEH5Qim6zTNKWPLMUNQu-89" value="Não" style="edgeLabel;html=1;align=center;verticalAlign=middle;resizable=0;points=[];" parent="AEH5Qim6zTNKWPLMUNQu-88" vertex="1" connectable="0">
          <mxGeometry x="-0.0847" y="3" relative="1" as="geometry">
            <mxPoint as="offset" />
          </mxGeometry>
        </mxCell>
        <mxCell id="t4PLg8slm5s5d_9_sdZY-3" style="edgeStyle=orthogonalEdgeStyle;rounded=0;orthogonalLoop=1;jettySize=auto;html=1;entryX=0.5;entryY=1;entryDx=0;entryDy=0;" edge="1" parent="WIyWlLk6GJQsqaUBKTNV-1" source="t4PLg8slm5s5d_9_sdZY-0" target="t4PLg8slm5s5d_9_sdZY-2">
          <mxGeometry relative="1" as="geometry" />
        </mxCell>
        <mxCell id="t4PLg8slm5s5d_9_sdZY-0" value="Crie o &quot;objeto&quot; veículo" style="rounded=0;whiteSpace=wrap;html=1;" vertex="1" parent="WIyWlLk6GJQsqaUBKTNV-1">
          <mxGeometry x="410" y="-910" width="140" height="60" as="geometry" />
        </mxCell>
        <mxCell id="t4PLg8slm5s5d_9_sdZY-6" style="edgeStyle=orthogonalEdgeStyle;rounded=0;orthogonalLoop=1;jettySize=auto;html=1;entryX=0.159;entryY=0.01;entryDx=0;entryDy=0;entryPerimeter=0;" edge="1" parent="WIyWlLk6GJQsqaUBKTNV-1" source="t4PLg8slm5s5d_9_sdZY-2" target="AEH5Qim6zTNKWPLMUNQu-1">
          <mxGeometry relative="1" as="geometry">
            <mxPoint x="150" y="-30" as="targetPoint" />
          </mxGeometry>
        </mxCell>
        <mxCell id="t4PLg8slm5s5d_9_sdZY-2" value="Associe-o ao usuário" style="rounded=0;whiteSpace=wrap;html=1;" vertex="1" parent="WIyWlLk6GJQsqaUBKTNV-1">
          <mxGeometry x="410" y="-1010" width="140" height="60" as="geometry" />
        </mxCell>
        <mxCell id="t4PLg8slm5s5d_9_sdZY-10" value="" style="edgeStyle=orthogonalEdgeStyle;rounded=0;orthogonalLoop=1;jettySize=auto;html=1;" edge="1" parent="WIyWlLk6GJQsqaUBKTNV-1" source="t4PLg8slm5s5d_9_sdZY-7" target="t4PLg8slm5s5d_9_sdZY-9">
          <mxGeometry relative="1" as="geometry" />
        </mxCell>
        <mxCell id="t4PLg8slm5s5d_9_sdZY-19" value="Sim" style="edgeLabel;html=1;align=center;verticalAlign=middle;resizable=0;points=[];" vertex="1" connectable="0" parent="t4PLg8slm5s5d_9_sdZY-10">
          <mxGeometry x="-0.4661" relative="1" as="geometry">
            <mxPoint as="offset" />
          </mxGeometry>
        </mxCell>
        <mxCell id="t4PLg8slm5s5d_9_sdZY-21" value="" style="edgeStyle=orthogonalEdgeStyle;rounded=0;orthogonalLoop=1;jettySize=auto;html=1;" edge="1" parent="WIyWlLk6GJQsqaUBKTNV-1" source="t4PLg8slm5s5d_9_sdZY-7" target="t4PLg8slm5s5d_9_sdZY-20">
          <mxGeometry relative="1" as="geometry" />
        </mxCell>
        <mxCell id="t4PLg8slm5s5d_9_sdZY-7" value="O usuário existe?" style="rhombus;whiteSpace=wrap;html=1;shadow=0;strokeWidth=1;spacing=6;spacingTop=-4;" vertex="1" parent="WIyWlLk6GJQsqaUBKTNV-1">
          <mxGeometry x="650" y="155" width="110" height="80" as="geometry" />
        </mxCell>
        <mxCell id="t4PLg8slm5s5d_9_sdZY-12" value="" style="edgeStyle=orthogonalEdgeStyle;rounded=0;orthogonalLoop=1;jettySize=auto;html=1;" edge="1" parent="WIyWlLk6GJQsqaUBKTNV-1" source="t4PLg8slm5s5d_9_sdZY-9" target="t4PLg8slm5s5d_9_sdZY-11">
          <mxGeometry relative="1" as="geometry" />
        </mxCell>
        <mxCell id="t4PLg8slm5s5d_9_sdZY-9" value="Exiba o usuário" style="whiteSpace=wrap;html=1;shadow=0;strokeWidth=1;spacing=6;spacingTop=-4;" vertex="1" parent="WIyWlLk6GJQsqaUBKTNV-1">
          <mxGeometry x="645" y="30" width="120" height="60" as="geometry" />
        </mxCell>
        <mxCell id="t4PLg8slm5s5d_9_sdZY-13" style="edgeStyle=orthogonalEdgeStyle;rounded=0;orthogonalLoop=1;jettySize=auto;html=1;entryX=1;entryY=0.5;entryDx=0;entryDy=0;" edge="1" parent="WIyWlLk6GJQsqaUBKTNV-1" source="t4PLg8slm5s5d_9_sdZY-11" target="t4PLg8slm5s5d_9_sdZY-9">
          <mxGeometry relative="1" as="geometry">
            <Array as="points">
              <mxPoint x="830" y="-100" />
              <mxPoint x="830" y="60" />
            </Array>
          </mxGeometry>
        </mxCell>
        <mxCell id="t4PLg8slm5s5d_9_sdZY-14" value="Sim" style="edgeLabel;html=1;align=center;verticalAlign=middle;resizable=0;points=[];" vertex="1" connectable="0" parent="t4PLg8slm5s5d_9_sdZY-13">
          <mxGeometry x="-0.4789" y="3" relative="1" as="geometry">
            <mxPoint x="-6" y="40" as="offset" />
          </mxGeometry>
        </mxCell>
        <mxCell id="t4PLg8slm5s5d_9_sdZY-16" style="edgeStyle=orthogonalEdgeStyle;rounded=0;orthogonalLoop=1;jettySize=auto;html=1;" edge="1" parent="WIyWlLk6GJQsqaUBKTNV-1" source="t4PLg8slm5s5d_9_sdZY-11">
          <mxGeometry relative="1" as="geometry">
            <mxPoint x="160" y="10" as="targetPoint" />
            <Array as="points">
              <mxPoint x="705" y="-1060" />
              <mxPoint x="90" y="-1060" />
              <mxPoint x="90" y="10" />
            </Array>
          </mxGeometry>
        </mxCell>
        <mxCell id="t4PLg8slm5s5d_9_sdZY-11" value="Ainda há dados que não foram mostrados do usuário?" style="rhombus;whiteSpace=wrap;html=1;shadow=0;strokeWidth=1;spacing=6;spacingTop=-4;" vertex="1" parent="WIyWlLk6GJQsqaUBKTNV-1">
          <mxGeometry x="591.88" y="-140" width="226.25" height="80" as="geometry" />
        </mxCell>
        <mxCell id="t4PLg8slm5s5d_9_sdZY-22" style="edgeStyle=orthogonalEdgeStyle;rounded=0;orthogonalLoop=1;jettySize=auto;html=1;entryX=0;entryY=0.5;entryDx=0;entryDy=0;" edge="1" parent="WIyWlLk6GJQsqaUBKTNV-1" source="t4PLg8slm5s5d_9_sdZY-20" target="AEH5Qim6zTNKWPLMUNQu-1">
          <mxGeometry relative="1" as="geometry">
            <Array as="points">
              <mxPoint x="895" y="-1100" />
              <mxPoint x="80" y="-1100" />
              <mxPoint x="80" y="20" />
            </Array>
          </mxGeometry>
        </mxCell>
        <mxCell id="t4PLg8slm5s5d_9_sdZY-20" value="escreva &quot;Cadastre o usuário primeiro&quot;&amp;nbsp;" style="whiteSpace=wrap;html=1;shadow=0;strokeWidth=1;spacing=6;spacingTop=-4;" vertex="1" parent="WIyWlLk6GJQsqaUBKTNV-1">
          <mxGeometry x="835" y="165" width="120" height="60" as="geometry" />
        </mxCell>
      </root>
    </mxGraphModel>
  </diagram>
</mxfile>
